<?xml version="1.0" encoding="UTF-8"?>
<svg width="26px" height="26px" viewBox="0 0 26 26" version="1.1" xmlns="http://www.w3.org/2000/svg" xmlns:xlink="http://www.w3.org/1999/xlink">
    <title>icons_social-ig</title>
    <g id="icons_social-ig" stroke="none" stroke-width="1" fill="#fff" fill-rule="evenodd">
        <path d="M14.4614163,0.250809971 C16.6333975,0.255496205 17.1229896,0.274222139 18.2640387,0.326284892 C19.6216849,0.388207818 20.5489086,0.60384947 21.3602356,0.919185512 C22.1990052,1.24510364 22.910334,1.68124762 23.6194857,2.39034866 C24.3285867,3.09950033 24.7647307,3.81082918 25.0906995,4.64959875 C25.4059849,5.46092578 25.6216265,6.38814944 25.6835495,7.74579566 C25.7416195,9.01850426 25.7582157,9.48074636 25.7601154,12.3710805 L25.7601154,13.6384878 C25.7582157,16.5287804 25.7416195,16.9910225 25.6835495,18.2637311 C25.6216265,19.6213774 25.4059849,20.548601 25.0906995,21.359928 C24.7647307,22.1986976 24.3285867,22.9100265 23.6194857,23.6191781 C22.910334,24.3282792 22.1990052,24.7644232 21.3602356,25.0903919 C20.5489086,25.4056773 19.6216849,25.621319 18.2640387,25.6832419 C16.9035571,25.7453167 16.4691852,25.76 13.0050963,25.76 C9.54095668,25.76 9.10658483,25.7453167 7.74610322,25.6832419 C6.388457,25.621319 5.46123334,25.4056773 4.64990631,25.0903919 C3.81113674,24.7644232 3.09980789,24.3282792 2.39065622,23.6191781 C1.68155518,22.9100265 1.2454112,22.1986976 0.919493075,21.359928 C0.604157032,20.548601 0.38851538,19.6213774 0.326592455,18.2637311 C0.272527288,17.0787955 0.254412626,16.5963927 0.250638023,14.2028965 L0.250638023,11.8066638 C0.254412626,9.41313406 0.272527288,8.93073125 0.326592455,7.74579566 C0.38851538,6.38814944 0.604157032,5.46092578 0.919493075,4.64959875 C1.2454112,3.81082918 1.68155518,3.09950033 2.39065622,2.39034866 C3.09980789,1.68124762 3.81113674,1.24510364 4.64990631,0.919185512 C5.46123334,0.60384947 6.388457,0.388207818 7.74610322,0.326284892 C8.88715231,0.274222139 9.37674439,0.255496205 11.5487555,0.250809971 Z M13.6278449,2.54793549 L12.3823385,2.54793549 C9.54330946,2.5496438 9.1090756,2.56473503 7.85086081,2.62214191 C6.60723783,2.67884974 5.9318577,2.88664344 5.48239751,3.06132381 C4.88701592,3.29271201 4.46211225,3.56911205 4.01579125,4.01548369 C3.56941961,4.46180469 3.29301957,4.88670836 3.06163137,5.48208995 C2.886951,5.93155014 2.67915731,6.60693027 2.62244948,7.85055325 C2.56900169,9.0219946 2.55223418,9.47918852 2.54879695,11.8278999 L2.54879695,14.1816604 C2.55223418,16.5303383 2.56900169,16.9875322 2.62244948,18.1589735 C2.67915731,19.4025965 2.886951,20.0779767 3.06163137,20.5274368 C3.29301957,21.1228184 3.56947024,21.5477221 4.01579125,21.9940431 C4.46211225,22.4404147 4.88701592,22.7168148 5.48239751,22.948203 C5.9318577,23.1228834 6.60723783,23.330677 7.85086081,23.3873849 C9.02216987,23.4408327 9.4792699,23.4576002 11.8281265,23.4610374 L14.1820511,23.4610374 C16.5308834,23.4576002 16.9880162,23.4408327 18.1592811,23.3873849 C19.4029041,23.330677 20.0782842,23.1228834 20.5277444,22.948203 C21.123126,22.7168148 21.5480297,22.4404147 21.9943507,21.9940431 C22.4407223,21.5477221 22.7171223,21.1228184 22.9485105,20.5274368 C23.1231909,20.0779767 23.3309846,19.4025965 23.3876924,18.1589735 C23.4490584,16.8139853 23.4620708,16.4105496 23.4620708,13.0047887 L23.462029,12.6844343 C23.461181,9.5719693 23.4470789,9.15215475 23.3876924,7.85055325 C23.3309846,6.60693027 23.1231909,5.93155014 22.9485105,5.48208995 C22.7171223,4.88670836 22.4407223,4.46180469 21.9943507,4.01548369 C21.5480297,3.56911205 21.123126,3.29271201 20.5277444,3.06132381 C20.0782842,2.88664344 19.4029041,2.67884974 18.1592811,2.62214191 C16.9010663,2.56473503 16.4668325,2.5496438 13.6278449,2.54793549 Z M13.0050956,6.6271451 C16.5273549,6.6271451 19.3826893,9.48247942 19.3826893,13.004788 C19.3826893,16.5270474 16.5273549,19.3823817 13.0050956,19.3823817 C9.48278698,19.3823817 6.62745266,16.5270474 6.62745266,13.004788 C6.62745266,9.48247942 9.48278698,6.6271451 13.0050956,6.6271451 Z M13.0050956,8.86490331 C10.7186787,8.86490331 8.86521087,10.7183711 8.86521087,13.004788 C8.86521087,15.2911557 10.7186787,17.1446235 13.0050956,17.1446235 C15.2914632,17.1446235 17.144931,15.2911557 17.144931,13.004788 C17.144931,10.7183711 15.2914632,8.86490331 13.0050956,8.86490331 Z M19.8732509,4.664801 C20.6860881,4.664801 21.3450334,5.32374629 21.3450334,6.13658341 C21.3450334,6.94942054 20.6860881,7.60831714 19.8732509,7.60831714 C19.0604625,7.60831714 18.4015172,6.94942054 18.4015172,6.13658341 C18.4015172,5.32374629 19.0604625,4.664801 19.8732509,4.664801 Z" id="Combined-Shape" fill="#ffffff"></path>
    </g>
</svg>
