<?xml version="1.0" encoding="UTF-8"?>
<svg width="26px" height="26px" viewBox="0 0 26 26" version="1.1" xmlns="http://www.w3.org/2000/svg" xmlns:xlink="http://www.w3.org/1999/xlink">
    <title>icons_social-fb</title>
    <g id="icons_social-fb" stroke="none" stroke-width="1" fill="none" fill-rule="evenodd">
        <path d="M26,13.0826654 C26,5.99537478 20.179707,0.25 13,0.25 C5.82029297,0.25 0,5.99537478 0,13.0826654 C0,19.4878196 4.75391211,24.7967334 10.96875,25.759434 L10.96875,16.7921077 L7.66796875,16.7921077 L7.66796875,13.0826654 L10.96875,13.0826654 L10.96875,10.2554688 C10.96875,7.03928204 12.9095586,5.26275992 15.879043,5.26275992 C17.3013496,5.26275992 18.7890625,5.51339792 18.7890625,5.51339792 L18.7890625,8.67143667 L17.149793,8.67143667 C15.534873,8.67143667 15.03125,9.66062965 15.03125,10.6754629 L15.03125,13.0826654 L18.6367188,13.0826654 L18.0603516,16.7921077 L15.03125,16.7921077 L15.03125,25.759434 C21.2460879,24.7967334 26,19.4878196 26,13.0826654" id="Fill-1" fill="#ffffff"></path>
    </g>
</svg>
