<?xml version="1.0" encoding="UTF-8"?>
<svg width="26px" height="26px" viewBox="0 0 26 26" version="1.1" xmlns="http://www.w3.org/2000/svg" xmlns:xlink="http://www.w3.org/1999/xlink">
    <title>icons_social-tw</title>
    <g id="icons_social-tw" stroke="none" stroke-width="1" fill="none" fill-rule="evenodd">
        <path d="M8.16726691,23.565 C17.9783914,23.565 23.3469388,15.4352018 23.3469388,8.39700049 C23.3469388,8.16828494 23.3469388,7.93956939 23.3365346,7.71085384 C24.3769508,6.96233022 25.2821128,6.01627953 26,4.9454749 C25.0428171,5.37171752 24.0128051,5.65241388 22.9307723,5.78756398 C24.0336134,5.13260581 24.8763505,4.0825935 25.2821128,2.83505413 C24.2521008,3.44842766 23.1076431,3.88506644 21.8903561,4.12417815 C20.9123649,3.08456201 19.5286114,2.44 17.9991997,2.44 C15.0548219,2.44 12.6618647,4.83111713 12.6618647,7.77323081 C12.6618647,8.18907726 12.7138856,8.59452756 12.7971188,8.98958169 C8.36494598,8.7712623 4.43217287,6.64004921 1.79991997,3.41723917 C1.34213685,4.20734744 1.08203281,5.12220965 1.08203281,6.09944882 C1.08203281,7.94996555 2.02881152,9.58216289 3.45418167,10.5386097 C2.58023209,10.5074213 1.75830332,10.2683095 1.04041617,9.87325541 C1.04041617,9.89404774 1.04041617,9.91484006 1.04041617,9.94602854 C1.04041617,12.5242766 2.88195278,14.6866781 5.31652661,15.1752977 C4.86914766,15.3000517 4.40096038,15.3624286 3.91196479,15.3624286 C3.56862745,15.3624286 3.23569428,15.3312402 2.91316527,15.2688632 C3.58943577,17.3896801 5.56622649,18.928312 7.8967587,18.9698967 C6.06562625,20.4045669 3.76630652,21.2570522 1.26930772,21.2570522 C0.842737095,21.2570522 0.416166467,21.2362598 0,21.184279 C2.35134054,22.6813263 5.16046419,23.565 8.16726691,23.565" id="Path" fill="#ffffff" fill-rule="nonzero"></path>
    </g>
</svg>
